<?xml version="1.0" encoding="utf-8"?>
<!-- Generator: Adobe Illustrator 21.1.0, SVG Export Plug-In . SVG Version: 6.00 Build 0)  -->
<svg version="1.1" id="Layer_1" xmlns="http://www.w3.org/2000/svg" xmlns:xlink="http://www.w3.org/1999/xlink" x="0px" y="0px"
	 viewBox="0 0 256 256" style="enable-background:new 0 0 256 256;" xml:space="preserve">
<style type="text/css">
	.st0{fill:#FFFFFF;}
</style>
<rect y="0" class="st0" width="256" height="256"/>
<path d="M12.1,128L226.2,8.7c3.5-1.9,6.1-2.8,7.8-2.8c2.7,0,5,1,7,2.9c2,2,2.9,4.3,2.9,7c0,3.9-2.7,7.4-8,10.4L52.4,128l183.2,101.9
	c5.3,3,8,6.4,8,10.4c0,2.7-1,5-2.9,7c-2,2-4.3,2.9-7,2.9c-1.7,0-4.3-0.9-7.8-2.8L12.1,128z"/>
</svg>
