<?xml version="1.0" encoding="utf-8"?>
<!-- Generator: Adobe Illustrator 21.1.0, SVG Export Plug-In . SVG Version: 6.00 Build 0)  -->
<svg version="1.1" id="Layer_1" xmlns="http://www.w3.org/2000/svg" xmlns:xlink="http://www.w3.org/1999/xlink" x="0px" y="0px"
	 viewBox="0 0 2048 2048" style="enable-background:new 0 0 2048 2048;" xml:space="preserve">
<style type="text/css">
	.st0{fill:#FFFFFF;}
</style>
<g>
	<path class="st0" d="M750.1,1298c-9.6-9.6-19.1-19.1-28.7-28.7c-22.9-22.9-45.9-45.9-68.8-68.8c-27.7-27.7-55.5-55.5-83.2-83.2
		c-24-24-48-48-71.9-71.9c-11.6-11.6-22.8-23.8-34.9-34.9c-0.2-0.2-0.3-0.3-0.5-0.5c0,9.4,0,18.9,0,28.3
		c9.6-9.6,19.1-19.1,28.7-28.7c22.9-22.9,45.9-45.9,68.8-68.8c27.7-27.7,55.5-55.5,83.2-83.2c24-24,48-48,71.9-71.9
		c11.6-11.6,23.6-22.9,34.9-34.9c0.2-0.2,0.3-0.3,0.5-0.5c7.4-7.4,8-21,0-28.3s-20.4-7.9-28.3,0c-9.6,9.6-19.1,19.1-28.7,28.7
		c-22.9,22.9-45.9,45.9-68.8,68.8c-27.7,27.7-55.5,55.5-83.2,83.2c-24,24-48,48-71.9,71.9c-11.6,11.6-23.6,22.9-34.9,34.9
		c-0.2,0.2-0.3,0.3-0.5,0.5c-7.6,7.6-7.7,20.6,0,28.3c9.6,9.6,19.1,19.1,28.7,28.7c22.9,22.9,45.9,45.9,68.8,68.8
		c27.7,27.7,55.5,55.5,83.2,83.2c24,24,48,48,71.9,71.9c11.6,11.6,22.9,23.6,34.9,34.9c0.2,0.2,0.3,0.3,0.5,0.5c7.4,7.4,21,8,28.3,0
		C757.4,1318.3,758,1305.9,750.1,1298L750.1,1298z"/>
	<path class="st0" d="M447.9,1044.1c10.3,0,20.7,0,31,0c27.9,0,55.8,0,83.7,0c41.4,0,82.7,0,124.1,0c50.5,0,100.9,0,151.4,0
		c55.1,0,110.1,0,165.2,0c56,0,111.9,0,167.9,0c51.8,0,103.6,0,155.5,0c44,0,87.9,0,131.9,0c31.6,0,63.2,0,94.8,0
		c14.9,0,29.9,0.2,44.8,0c0.7,0,1.3,0,2,0c10.5,0,20.5-9.2,20-20c-0.5-10.8-8.8-20-20-20c-10.3,0-20.7,0-31,0c-27.9,0-55.8,0-83.7,0
		c-41.4,0-82.7,0-124.1,0c-50.5,0-100.9,0-151.4,0c-55.1,0-110.1,0-165.2,0c-56,0-111.9,0-167.9,0c-51.8,0-103.6,0-155.5,0
		c-44,0-87.9,0-131.9,0c-31.6,0-63.2,0-94.8,0c-14.9,0-29.9-0.2-44.8,0c-0.7,0-1.3,0-2,0c-10.5,0-20.5,9.2-20,20
		C428.4,1034.9,436.7,1044.1,447.9,1044.1L447.9,1044.1z"/>
</g>
<path class="st0" d="M1024,1812c-106.4,0-209.6-20.8-306.7-61.9c-93.8-39.7-178.1-96.5-250.5-168.9s-129.2-156.6-168.9-250.5
	c-41.1-97.2-61.9-200.4-61.9-306.7c0-106.4,20.8-209.6,61.9-306.7c39.7-93.8,96.5-178.1,168.9-250.5s156.6-129.2,250.5-168.9
	C814.4,256.8,917.6,236,1024,236s209.6,20.8,306.7,61.9c93.8,39.7,178.1,96.5,250.5,168.9s129.2,156.6,168.9,250.5
	c41.1,97.2,61.9,200.4,61.9,306.7c0,106.4-20.8,209.6-61.9,306.7c-39.7,93.8-96.5,178.1-168.9,250.5s-156.6,129.2-250.5,168.9
	C1233.6,1791.2,1130.4,1812,1024,1812z M1024,276c-412.4,0-748,335.6-748,748s335.6,748,748,748s748-335.6,748-748
	S1436.4,276,1024,276z"/>
</svg>
