<?xml version="1.0" encoding="utf-8"?>
<!-- Generator: Adobe Illustrator 21.1.0, SVG Export Plug-In . SVG Version: 6.00 Build 0)  -->
<svg version="1.1" id="Layer_1" xmlns="http://www.w3.org/2000/svg" xmlns:xlink="http://www.w3.org/1999/xlink" x="0px" y="0px"
	 viewBox="0 0 256 256" style="enable-background:new 0 0 256 256;" xml:space="preserve">
<g>
	<g>
		<path d="M215.8,128c-0.1,36.5-23.3,70-57.7,82.5c-34.8,12.6-74.4,1.7-98-26.7c-23.5-28.4-26.4-70-7.2-101.5
			c19-31.3,56.7-47.8,92.6-40.4c35.5,7.3,63.4,36.5,69.2,72.2C215.5,118.7,215.8,123.4,215.8,128c0,3.2,5,3.2,5,0
			c-0.1-38.7-24.7-73.9-61-87.2c-36.6-13.4-79-1.8-103.6,28.4c-24.6,30.1-27.9,73.7-7.6,107c20.2,33.2,59.8,50.4,97.9,42.8
			c37.4-7.5,67.4-38.7,73.2-76.5c0.7-4.8,1.1-9.6,1.1-14.5C220.8,124.8,215.8,124.8,215.8,128z"/>
	</g>
</g>
<g>
	<g>
		<path d="M96.8,159.2c-9.6-9.6-19.2-19.2-28.8-28.8c-1.4-1.4-2.8-2.8-4.1-4.1c0,1.2,0,2.4,0,3.5c9.6-9.6,19.2-19.2,28.8-28.8
			c1.4-1.4,2.8-2.8,4.1-4.1c2.3-2.3-1.3-5.8-3.5-3.5c-9.6,9.6-19.2,19.2-28.8,28.8c-1.4,1.4-2.8,2.8-4.1,4.1c-1,1-1,2.6,0,3.5
			c9.6,9.6,19.2,19.2,28.8,28.8c1.4,1.4,2.8,2.8,4.1,4.1C95.6,165,99.1,161.5,96.8,159.2L96.8,159.2z"/>
	</g>
</g>
<g>
	<g>
		<path d="M62.1,130.5c14.9,0,29.8,0,44.8,0c23.6,0,47.2,0,70.7,0c5.4,0,10.9,0,16.3,0c3.2,0,3.2-5,0-5c-14.9,0-29.8,0-44.8,0
			c-23.6,0-47.2,0-70.7,0c-5.4,0-10.9,0-16.3,0C58.9,125.5,58.9,130.5,62.1,130.5L62.1,130.5z"/>
	</g>
</g>
</svg>
