<?xml version="1.0" encoding="utf-8"?>
<!-- Generator: Adobe Illustrator 21.1.0, SVG Export Plug-In . SVG Version: 6.00 Build 0)  -->
<svg version="1.1" id="Layer_1" xmlns="http://www.w3.org/2000/svg" xmlns:xlink="http://www.w3.org/1999/xlink" x="0px" y="0px"
	 viewBox="0 0 512 512" style="enable-background:new 0 0 512 512;" xml:space="preserve">
<path d="M458.5,99.4c-13.3-17.2-28.8-32.6-45.9-46C369.3,20,315,0,256,0S142.7,20,99.4,53.5c-17.2,13.3-32.6,28.8-45.9,46
	C20,142.7,0,197,0,256c0,59,20,113.3,53.5,156.6c13.3,17.2,28.8,32.7,46,46C142.7,492,197,512,256,512s113.3-20,156.6-53.5
	c17.2-13.3,32.6-28.8,46-46C492,369.3,512,315,512,256C512,197,492,142.7,458.5,99.4z M256,51.2c44.8,0,86.3,14.4,120,38.8l-120,120
	L136,90C169.7,65.6,211.2,51.2,256,51.2z M51.2,256c0-44.8,14.4-86.3,38.8-120l120,120L90,376C65.6,342.3,51.2,300.8,51.2,256z
	 M256,460.8c-44.8,0-86.3-14.4-120-38.8l120-120l120,120C342.3,446.4,300.8,460.8,256,460.8z M422,376L302,256l120-120
	c24.4,33.7,38.8,75.2,38.8,120C460.8,300.8,446.4,342.3,422,376z"/>
</svg>
